<?xml version="1.0" encoding="utf-8"?>
<svg xmlns="http://www.w3.org/2000/svg" width="16px" height="16px" viewBox="0 0 96 96" xmlns:bx="https://boxy-svg.com">
    <g fill="none" fill-rule="nonzero" stroke="none" stroke-width="1" stroke-linecap="butt" stroke-linejoin="miter" stroke-miterlimit="10" stroke-dasharray="" stroke-dashoffset="0" font-family="none" font-weight="none" font-size="none" text-anchor="none" style="mix-blend-mode: normal; transform-origin: 40px 40px 0px;" transform="matrix(1, 0, 0, 1, -38, -40)">
        <path d="M0,172v-172h172v172z" fill="none"/>
        <g fill="currentColor">
            <path d="M 85.984 40 C 83.914 40.002 81.842 40.465 79.946 41.396 C 79.939 41.4 79.935 41.405 79.93 41.41 L 41.249 60.517 C 39.253 61.506 37.999 63.483 38 65.639 L 38 110.341 C 37.999 112.498 39.253 114.474 41.249 115.462 L 79.969 134.601 C 79.971 134.601 79.974 134.601 79.977 134.601 C 83.781 136.475 88.253 136.463 92.063 134.585 C 92.065 134.582 92.068 134.58 92.07 134.578 L 130.751 115.47 C 132.747 114.481 134.001 112.505 134 110.349 L 134 65.639 C 134.001 63.483 132.747 61.506 130.751 60.517 L 92.054 41.403 C 92.047 41.398 92.039 41.391 92.031 41.387 C 90.13 40.459 88.055 39.998 85.984 40 Z M 86 51.526 C 86.207 51.527 86.411 51.568 86.586 51.653 L 122 69.156 L 122 106.831 L 86.586 124.334 C 86.236 124.507 85.738 124.492 85.461 124.356 L 50 106.831 L 50 69.156 L 85.406 51.653 C 85.585 51.565 85.793 51.525 86 51.526 Z M 107.023 68.039 C 106.064 68.058 105.124 68.297 104.282 68.736 L 96.625 72.553 C 93.395 74.163 89.884 74.974 86.359 75.028 C 86.209 75.017 86.057 75.012 85.906 75.013 C 85.818 75.016 85.729 75.021 85.641 75.028 C 82.116 74.975 78.597 74.163 75.367 72.553 L 67.711 68.736 C 66.826 68.278 65.835 68.041 64.829 68.046 C 62.052 68.062 59.65 69.905 59.02 72.5 C 58.39 75.095 59.697 77.765 62.179 78.957 L 69.837 82.775 C 73.066 84.384 76.501 85.423 80 86.006 L 80 109.148 C 79.97 111.225 81.106 113.157 82.975 114.205 C 84.845 115.252 87.155 115.252 89.025 114.205 C 90.894 113.157 92.03 111.225 92 109.148 L 92 86.006 C 95.497 85.423 98.929 84.383 102.156 82.775 L 109.812 78.957 C 112.33 77.759 113.644 75.045 112.974 72.426 C 112.305 69.807 109.833 67.984 107.023 68.039 Z"/>
        </g>
    </g>
    <defs>
        <bx:grid x="0" y="0" width="6" height="6"/>
        <bx:export>
            <bx:file format="svg"/>
        </bx:export>
    </defs>
</svg>
