<?xml version="1.0" encoding="utf-8"?>
<svg xmlns="http://www.w3.org/2000/svg" width="16px" height="16px" viewBox="0 0 96 96" xmlns:bx="https://boxy-svg.com">
    <g fill="none" fill-rule="nonzero" stroke="none" stroke-width="1" stroke-linecap="butt" stroke-linejoin="miter" stroke-miterlimit="10" stroke-dasharray="" stroke-dashoffset="0" font-family="none" font-weight="none" font-size="none" text-anchor="none" style="mix-blend-mode: normal; transform-origin: 40px 40px 0px;" transform="matrix(1, 0, 0, 1, -38, -40)">
        <path d="M0,172v-172h172v172z" fill="none"/>
        <g fill="currentColor">
            <path d="M85.986,43c-1.85492,0.00239 -3.71052,0.43401 -5.40999,1.30176c-0.00467,0.00466 -0.00934,0.00932 -0.014,0.014l-34.65055,17.83268c-1.78887,0.92264 -2.91243,2.76732 -2.91146,4.78011v41.71924c-0.00097,2.01279 1.12259,3.85748 2.91146,4.78011l34.68555,17.86068c0.00233,0 0.00467,0 0.007,0c3.40752,1.75053 7.41431,1.73825 10.82698,-0.014c0.00233,-0.00233 0.00467,-0.00467 0.007,-0.007l34.65055,-17.83268c1.78887,-0.92264 2.91243,-2.76732 2.91146,-4.78011v-41.72624c0.00097,-2.01279 -1.12259,-3.85747 -2.91146,-4.78011l-34.66455,-17.83968c-0.00699,-0.00468 -0.01399,-0.00935 -0.021,-0.014c-1.70309,-0.86641 -3.56207,-1.29715 -5.41699,-1.29476zM86,53.757c0.185,0.00056 0.3684,0.03937 0.5249,0.11898l31.7251,16.33496v35.16146l-31.7251,16.33496c-0.31401,0.16121 -0.76033,0.14799 -1.00781,0.02099l-31.76709,-16.35596v-35.16146l31.7181,-16.33496c0.16029,-0.08184 0.3469,-0.11954 0.5319,-0.11898zM104.83349,69.16813c-0.8591,0.0175 -1.70149,0.2407 -2.45654,0.65088l-6.85872,3.56234c-2.89339,1.50247 -6.03933,2.26004 -9.19629,2.30957c-0.13508,-0.00978 -0.27049,-0.01445 -0.40593,-0.014c-0.07941,0.00291 -0.15875,0.00757 -0.23795,0.014c-3.15726,-0.04939 -6.30962,-0.80696 -9.20329,-2.30957l-6.85873,-3.56234c-0.79326,-0.42771 -1.68132,-0.64913 -2.58252,-0.64388c-2.48684,0.01489 -4.63883,1.73365 -5.20313,4.15567c-0.56431,2.42202 0.6064,4.91493 2.83057,6.02744l6.85872,3.56234c2.89364,1.5026 5.9714,2.47227 9.10531,3.01644v21.59798c-0.02741,1.93842 0.99102,3.74144 2.66532,4.71865c1.6743,0.97721 3.74507,0.97721 5.41937,0c1.6743,-0.97721 2.69273,-2.78023 2.66532,-4.71865v-21.59798c3.13155,-0.54447 6.20676,-1.51493 9.09831,-3.01644l6.85873,-3.56234c2.25471,-1.11835 3.43162,-3.65139 2.83226,-6.09581c-0.59935,-2.44442 -2.8145,-4.14575 -5.3308,-4.09429z"/>
        </g>
    </g>
    <defs>
        <bx:grid x="0" y="0" width="6" height="6"/>
        <bx:export>
            <bx:file format="svg"/>
        </bx:export>
    </defs>
</svg>
