<svg xmlns="http://www.w3.org/2000/svg" width="16" height="16" viewBox="0 0 16 16" fill="currentColor">
  <path d="M 6.997 12.995 C 7.549 12.995 7.997 13.443 7.997 13.994 C 7.997 14.546 7.549 14.994 6.997 14.994 L 3.999 14.994 C 2.342 14.994 1 13.652 1 11.995 L 1 3.999 C 1 2.342 2.342 1 3.999 1 L 6.997 1 C 7.549 1 7.997 1.448 7.997 2 C 7.997 2.551 7.549 2.999 6.997 2.999 L 3.999 2.999 C 3.447 2.999 2.999 3.447 2.999 3.999 L 2.999 11.995 C 2.999 12.547 3.447 12.995 3.999 12.995 L 6.997 12.995 Z M 15.704 7.291 C 15.893 7.478 16 7.734 16 8 C 16 8.266 15.893 8.522 15.704 8.709 L 12.705 11.708 C 12.518 11.896 12.262 12.004 11.996 12.004 C 11.73 12.004 11.474 11.896 11.287 11.708 C 11.098 11.521 10.991 11.265 10.991 10.999 C 10.991 10.732 11.098 10.477 11.287 10.289 L 12.584 8.999 L 6.998 8.996 C 6.446 8.996 5.998 8.549 5.998 7.997 C 5.998 7.445 6.446 6.997 6.998 6.997 L 12.586 7 L 11.287 5.711 C 10.922 5.314 10.935 4.702 11.316 4.322 C 11.697 3.94 12.309 3.927 12.705 4.292 L 15.704 7.291 Z" style=""/>
</svg>
