<?xml version="1.0" encoding="utf-8"?>
<svg xmlns="http://www.w3.org/2000/svg" width="24px" height="24px" viewBox="0 0 96 96" xmlns:bx="https://boxy-svg.com">
  <g fill="none" fill-rule="nonzero" stroke="none" stroke-width="1" stroke-linecap="butt" stroke-linejoin="miter" stroke-miterlimit="10" stroke-dasharray="" stroke-dashoffset="0" font-family="none" font-weight="none" font-size="none" text-anchor="none" style="mix-blend-mode: normal; transform-origin: 40px 40px 0px;" transform="matrix(1, 0, 0, 1, -38, -40)">
    <path d="M0,172v-172h172v172z" fill="none"/>
    <g fill="currentColor">
      <path d="M 85.987 136 C 83.919 135.998 81.841 135.535 79.948 134.604 C 79.939 134.6 79.937 134.595 79.932 134.59 L 41.251 115.483 C 39.257 114.494 38 112.517 38 110.361 L 38 65.659 C 38 63.502 39.257 61.526 41.251 60.538 L 79.969 41.399 C 79.969 41.399 79.974 41.399 79.976 41.399 C 83.779 39.525 88.254 39.537 92.063 41.415 C 92.065 41.418 92.07 41.42 92.07 41.422 L 130.751 60.53 C 132.745 61.519 134 63.495 134 65.651 L 134 110.361 C 134 112.517 132.745 114.494 130.751 115.483 L 92.057 134.597 C 92.048 134.602 92.039 134.609 92.031 134.613 C 90.132 135.541 88.055 136.002 85.987 136 Z M 86.002 128 C 86.209 127.999 125.997 108 125.997 108 L 125.997 68 C 125.997 68 86.277 47.864 86.002 48 L 86.002 80 C 86.002 80 86.083 84.659 84.043 87.445 C 82.003 90.231 77.875 92.062 77.875 92.062 L 46.003 108 C 46.003 108 85.795 128.001 86.002 128 Z" style="transform-origin: 86.002px 88px 0px;"/>
    </g>
  </g>
  <defs>
    <bx:grid x="0" y="0" width="4" height="4"/>
    <bx:export>
      <bx:file format="svg"/>
    </bx:export>
  </defs>
</svg>