<svg xmlns="http://www.w3.org/2000/svg" width="24px" height="24px" viewBox="0 0 96 96">
  <g style="mix-blend-mode: normal; transform-origin: 40px 40px 0px;" transform="matrix(1, 0, 0, 1, -38, -40)">
    <path d="M0,172v-172h172v172z" fill="none"/>
    <g fill="currentColor">
      <path d="M 85.985 136 C 83.915 135.998 81.842 135.535 79.946 134.604 C 79.94 134.6 79.934 134.595 79.931 134.59 L 41.249 115.483 C 39.254 114.494 38 112.517 38 110.361 L 38 65.659 C 38 63.502 39.254 61.526 41.249 60.538 L 79.97 41.399 C 79.97 41.399 79.973 41.399 79.976 41.399 C 83.78 39.525 88.253 39.537 92.063 41.415 C 92.066 41.418 92.069 41.42 92.069 41.422 L 130.751 60.53 C 132.746 61.519 134 63.495 134 65.651 L 134 110.361 C 134 112.517 132.746 114.494 130.751 115.483 L 92.054 134.597 C 92.048 134.602 92.039 134.609 92.03 134.613 C 90.131 135.541 88.055 136.002 85.985 136 Z M 86 128 C 86.207 127.999 125.999 108 125.999 108 L 125.999 68 C 125.999 68 86.276 47.864 86 48 L 86 80 C 86 80 86.081 84.659 84.041 87.445 C 82.004 90.231 77.876 92.062 77.876 92.062 L 46.001 108 C 46.001 108 85.793 128.001 86 128 Z" style="transform-origin: 86px 88px 0px;" transform="matrix(-1, 0, 0, -1, 0, 0)"/>
    </g>
  </g>
</svg>
