<?xml version="1.0" encoding="utf-8"?>
<svg xmlns="http://www.w3.org/2000/svg" width="16" height="16" viewBox="0 0 16 16" fill="currentColor">
    <g>
        <path d="M 9.706 7.294 C 9.895 7.481 10.002 7.737 10.002 8.003 C 10.002 8.269 9.895 8.525 9.706 8.712 L 6.707 11.711 C 6.52 11.899 6.264 12.007 5.998 12.007 C 5.732 12.007 5.476 11.899 5.289 11.711 C 5.1 11.524 4.993 11.268 4.993 11.002 C 4.993 10.735 5.1 10.48 5.289 10.292 L 6.586 9.002 L 1 8.999 C 0.448 8.999 0 8.552 0 8 C 0 7.448 0.448 7 1 7 L 6.588 7.003 L 5.289 5.714 C 4.924 5.317 4.937 4.705 5.318 4.325 C 5.699 3.943 6.311 3.93 6.707 4.295 L 9.706 7.294 Z"/>
        <path d="M 6.995 13.001 C 7.547 13.001 7.995 13.449 7.995 14 C 7.995 14.552 7.547 15 6.995 15 L 3.997 15 C 2.34 15 0.998 13.658 0.998 12.001 L 0.998 4.005 C 0.998 2.348 2.34 1.006 3.997 1.006 L 6.995 1.006 C 7.547 1.006 7.995 1.454 7.995 2.006 C 7.995 2.557 7.547 3.005 6.995 3.005 L 3.997 3.005 C 3.445 3.005 2.997 3.453 2.997 4.005 L 2.997 12.001 C 2.997 12.553 3.445 13.001 3.997 13.001 L 6.995 13.001 Z" style="transform-origin: 8px 8px 0px;" transform="matrix(-1, 0, 0, -1, 0, 0)"/>
    </g>
</svg>
