<svg xmlns="http://www.w3.org/2000/svg" width="16" height="16" viewBox="0 0 16 16" fill="currentColor">
  <path d="M 9.751 2.751 C 9.751 3.718 8.967 4.501 8 4.501 C 7.033 4.501 6.25 3.717 6.25 2.75 C 6.25 2.124 6.584 1.547 7.126 1.235 C 7.667 0.922 8.334 0.922 8.876 1.235 C 9.417 1.548 9.751 2.125 9.751 2.751 Z M 9.751 8 C 9.751 8.967 8.967 9.75 8 9.75 C 7.033 9.75 6.25 8.966 6.25 8 C 6.25 7.374 6.584 6.797 7.126 6.484 C 7.667 6.172 8.334 6.172 8.876 6.484 C 9.417 6.797 9.751 7.375 9.751 8 Z M 8.001 15 C 8.968 15 9.751 14.216 9.751 13.249 C 9.751 12.282 8.967 11.499 8 11.499 C 7.033 11.499 6.25 12.283 6.25 13.25 C 6.25 14.217 7.034 15 8.001 15 Z" style=""/>
</svg>
